<?xml version="1.0" encoding="UTF-8"?>
<svg id="Layer_2" data-name="Layer 2" xmlns="http://www.w3.org/2000/svg" xmlns:xlink="http://www.w3.org/1999/xlink" viewBox="0 0 2538.12 2538.12">
  <defs>
    <style>
      .cls-1 {
        fill: url(#linear-gradient);
      }

      .cls-1, .cls-2, .cls-3, .cls-4, .cls-5, .cls-6, .cls-7, .cls-8, .cls-9, .cls-10 {
        stroke-width: 0px;
      }

      .cls-2 {
        fill: url(#linear-gradient-6);
      }

      .cls-3 {
        fill: #ef0076;
      }

      .cls-5 {
        fill: url(#linear-gradient-5);
      }

      .cls-6 {
        fill: #fff;
      }

      .cls-7 {
        fill: url(#linear-gradient-2);
      }

      .cls-8 {
        fill: url(#linear-gradient-7);
      }

      .cls-9 {
        fill: url(#linear-gradient-3);
      }

      .cls-10 {
        fill: url(#linear-gradient-4);
      }
    </style>
    <linearGradient id="linear-gradient" x1="529.58" y1="1537.23" x2="840.18" y2="999.26" gradientUnits="userSpaceOnUse">
      <stop offset="0" stop-color="#fff200"/>
      <stop offset="1" stop-color="#ef4136"/>
    </linearGradient>
    <linearGradient id="linear-gradient-2" x1="824.85" y1="1350.93" x2="1051.5" y2="958.35" xlink:href="#linear-gradient"/>
    <linearGradient id="linear-gradient-3" x1="1193.35" y1="1073" x2="1193.35" y2="809.41" xlink:href="#linear-gradient"/>
    <linearGradient id="linear-gradient-4" x1="1408.52" y1="1174.18" x2="1408.52" y2="655.86" xlink:href="#linear-gradient"/>
    <linearGradient id="linear-gradient-5" x1="1280.25" y1="1221.5" x2="1739.15" y2="956.55" xlink:href="#linear-gradient"/>
    <linearGradient id="linear-gradient-6" x1="1475.09" y1="1311.07" x2="1842.94" y2="943.21" xlink:href="#linear-gradient"/>
    <linearGradient id="linear-gradient-7" x1="1804.62" y1="1444.05" x2="2045.98" y2="1026" xlink:href="#linear-gradient"/>
  </defs>
  <g id="Layer_1-2" data-name="Layer 1">
    <g>
      <path class="cls-4" d="m1269.06,2538.12c-142.55,0-282.5-23.46-415.94-69.74-129.01-44.73-249.48-109.86-358.09-193.56-107.47-82.83-200.57-181.71-276.7-293.89-77.31-113.91-135.15-238.69-171.92-370.85C15.61,1499.65,0,1384.91,0,1269.06c0-171.31,33.56-337.51,99.74-493.98,63.92-151.12,155.42-286.84,271.96-403.38,116.54-116.54,252.26-208.04,403.38-271.96C931.55,33.56,1097.74,0,1269.06,0s337.51,33.56,493.98,99.74c151.12,63.92,286.84,155.42,403.38,271.96,116.54,116.54,208.04,252.26,271.96,403.38,66.18,156.47,99.74,322.67,99.74,493.98,0,76.58-6.89,153.32-20.48,228.07-52.35,288.62-205.38,552.32-430.91,742.51-112.02,94.46-238.13,168.17-374.83,219.08-141.49,52.69-290.48,79.4-442.83,79.4Zm0-2497.19C591.87,40.93,40.93,591.87,40.93,1269.06c0,112.14,15.11,223.18,44.9,330.04,147.1,528.79,633.65,898.09,1183.22,898.09,594.27,0,1102.44-423.66,1208.3-1007.38,13.16-72.35,19.83-146.62,19.83-220.75,0-677.19-550.94-1228.13-1228.13-1228.13Z"/>
      <path class="cls-3" d="m1269.06,81.01C612.92,81.01,81.01,612.92,81.01,1269.06c0,110.59,15.12,217.7,43.44,319.26,139.39,501.1,599.06,868.78,1144.6,868.78,583.25,0,1068.35-420.27,1168.87-974.52,12.6-69.28,19.17-140.64,19.17-213.52,0-656.14-531.91-1188.05-1188.05-1188.05Zm782.29,1330.95c-67.28,370.94-391.94,652.22-782.29,652.22-365.12,0-672.76-246.08-766.05-581.45-18.95-67.98-29.08-139.66-29.08-213.67,0-439.13,355.99-795.12,795.12-795.12s795.12,355.99,795.12,795.12c0,48.78-4.4,96.54-12.83,142.91Z"/>
      <g>
        <path class="cls-6" d="m2077.22,1269.06c0,49.58-4.48,98.12-13.04,145.25-68.38,377.03-398.37,662.92-795.12,662.92-371.11,0-683.79-250.12-778.61-590.99-19.26-69.09-29.55-141.95-29.55-217.18,0-446.34,361.83-808.17,808.17-808.17s808.17,361.83,808.17,808.17Z"/>
        <path class="cls-4" d="m1269.06,2083.91c-181.64,0-353.5-58.46-496.99-169.06-138.99-107.13-241.29-258.7-288.06-426.82-19.77-70.92-29.79-144.59-29.79-218.97,0-449.31,365.54-814.85,814.85-814.85s814.85,365.54,814.85,814.85c0,49.18-4.42,98.45-13.15,146.44-70.24,387.3-407.4,668.4-801.7,668.4Zm0-1616.33c-441.94,0-801.48,359.54-801.48,801.49,0,73.17,9.86,145.64,29.31,215.39,95.99,345.08,413.52,586.1,772.18,586.1,387.83,0,719.46-276.49,788.55-657.43,8.58-47.21,12.94-95.68,12.94-144.06,0-441.94-359.54-801.49-801.49-801.49Z"/>
      </g>
      <g>
        <path class="cls-4" d="m336.53,1807.1l-26.15-55.38,84.47-70.28-.19-.41-107.94,20.57-26.15-55.38,144.31-68.14,16.7,35.37-109.54,51.73.19.4,123.86-21.41,13.55,28.7-95.23,82.04.19.41,109.54-51.72,16.7,35.37-144.3,68.14Z"/>
        <path class="cls-4" d="m224.42,1528.26c-12.04-48.59,16.87-85.23,61.78-96.35,44.9-11.13,87.58,7.77,99.62,56.36,12.04,48.59-16.87,85.23-61.78,96.36-44.9,11.13-87.58-7.77-99.62-56.36Zm126.69-31.39c-6.45-26.03-31.7-30.37-54.91-24.61-23.21,5.75-43.52,21.37-37.07,47.41,6.45,26.03,31.7,30.37,54.91,24.61,23.21-5.75,43.52-21.37,37.07-47.41Z"/>
        <path class="cls-4" d="m287.51,1265.07c46.16-3.04,70.53,16.63,73.7,64.8,3.17,48.17-18.4,70.87-64.56,73.91l-93.44,6.16-2.73-41.48,95.89-6.32c20.52-1.35,30.51-9.4,29.16-29.92-1.35-20.52-12.32-27.18-32.84-25.83l-95.89,6.32-2.73-41.48,93.44-6.16Z"/>
        <path class="cls-4" d="m195.02,1224.5l4.46-42.45,103.57-44.86.05-.45-97.79-10.26,4.08-38.9,158.69,16.65-4.45,42.45-104.69,44.74-.05.45,98.91,10.38-4.08,38.9-158.69-16.65Z"/>
        <path class="cls-4" d="m286.77,928.83l-12.56,45.91,119.42,32.66-10.97,40.09-119.42-32.66-12.56,45.91-34.49-9.43,36.08-131.92,34.49,9.43Z"/>
        <path class="cls-4" d="m274.45,865.87l16.65-38.82,170.18,8.07-17.09,39.85-30.17-2.24-21.94,51.14,22.33,20.52-16.83,39.23-123.13-117.75Zm93.07,37.01l14.27-33.27-58.31-5.8-.18.41,44.21,38.66Z"/>
        <path class="cls-4" d="m330.17,749.34l20.86-35.95,138,80.09-20.87,35.95-138-80.09Z"/>
        <path class="cls-4" d="m372.96,675.13l25.84-33.97,111.81,15.41.27-.35-78.26-59.52,23.67-31.13,127,96.59-25.84,33.97-112.7-16.09-.27.36,79.15,60.2-23.67,31.13-127-96.59Z"/>
        <path class="cls-4" d="m602.18,424.43c39.27-31.05,84.59-19.86,113.28,16.43,28.69,36.29,29.12,82.96-10.16,114.01-39.28,31.05-84.59,19.86-113.28-16.43-28.69-36.29-29.12-82.97,10.16-114.01Zm80.95,102.39c21.04-16.63,14.55-41.42-.28-60.18-14.83-18.76-37.45-30.79-58.49-14.16-21.04,16.63-14.55,41.42.28,60.18,14.83,18.76,37.45,30.79,58.49,14.16Z"/>
        <path class="cls-4" d="m701.42,357.01l102.76-57.12,16.18,29.11-66.42,36.92,15.86,28.52,57.44-31.93,15.64,28.13-57.44,31.93,29.86,53.72-36.34,20.2-77.53-139.49Z"/>
        <path class="cls-4" d="m913.82,255.09l112.77-33.2,9.4,31.94-72.89,21.46,9.21,31.3,63.03-18.56,9.09,30.87-63.03,18.56,17.36,58.96-39.88,11.74-45.07-153.08Z"/>
        <path class="cls-4" d="m1059.67,216.53l40.93-7.27,27.91,157.12-40.93,7.27-27.91-157.12Z"/>
        <path class="cls-4" d="m1144.21,201.44l81.23-4.38c27.9-1.51,56.48,9.71,58.21,41.85.92,17.18-6.23,33.91-22.84,41.3l.02.45c16.97,3.34,23.33,21.8,25.27,36.91,1.04,6.88,2.72,29.62,8.63,35.57l-41.06,2.21c-3.87-5.39-5.14-20.54-6.06-25.19-1.98-16.01-5.33-32.39-24.97-31.33l-31.47,1.7,3.13,58.03-41.51,2.24-8.59-159.35Zm45.24,66.94l34.82-1.88c12.5-.67,18.84-7.51,18.18-19.78-.64-11.83-10.3-16.68-21.91-16.05l-33.03,1.78,1.93,35.93Z"/>
        <path class="cls-4" d="m1324.06,195.9l126.42,13.72-3.59,33.1-85.09-9.23-3.01,27.77,77.76,8.44-3.47,31.99-77.76-8.44-3.28,30.22,87.31,9.47-3.86,35.55-128.64-13.96,17.21-158.63Z"/>
        <path class="cls-4" d="m1614.88,253.08l39.71,14.39,1.72,170.35-40.76-14.77.51-30.25-52.31-18.96-19.2,23.47-40.13-14.54,110.47-129.68Zm-31.59,95.04l34.03,12.34,2.44-58.54-.42-.15-36.05,46.36Z"/>
        <path class="cls-4" d="m1738.48,301.76l37.11,21.09-.41,112.87.39.22,48.58-85.48,34,19.32-78.84,138.71-37.11-21.09.96-113.84-.39-.22-49.14,86.46-34-19.32,78.84-138.71Z"/>
        <path class="cls-4" d="m1897.86,396.97l52.88,43.72c37.73,31.19,41.35,72.75,9.88,110.82-33.32,40.31-74.17,43.07-111.55,12.17l-52.88-43.72,101.67-122.99Zm-46.85,121.91l15.16,12.53c24.72,19.56,42.19,18.06,62.56-6.57,18.65-22.57,15.6-43.07-6.45-61.3l-15.16-12.53-56.11,67.87Z"/>
        <path class="cls-4" d="m2098.22,582.59l35.06,50.21-71.49,83.44.26.37,102.96-38.37,35.06,50.21-130.84,91.36-22.39-32.07,99.32-69.35-.26-.37-118.51,41.86-18.17-26.02,80.12-96.84-.26-.37-99.32,69.35-22.39-32.07,130.84-91.36Z"/>
        <path class="cls-4" d="m2219.45,770.66l18.61,37.17-142.67,71.44-18.61-37.17,142.67-71.44Z"/>
        <path class="cls-4" d="m2258.02,847.46l27.22,76.66c9.35,26.33,6.69,56.91-23.64,67.68-16.22,5.76-34.28,3.63-46.07-10.2l-.42.15c1.61,17.21-14.29,28.55-28.23,34.69-6.3,2.95-27.64,11-31.67,18.36l-13.76-38.75c4.07-5.24,18.24-10.74,22.44-12.95,14.79-6.44,29.55-14.29,22.97-32.82l-10.55-29.69-54.76,19.44-13.91-39.17,150.37-53.39Zm-51.38,62.36l11.66,32.85c4.19,11.79,12.54,15.94,24.12,11.83,11.16-3.96,13.08-14.6,9.19-25.56l-11.06-31.17-33.91,12.04Z"/>
        <path class="cls-4" d="m2321.93,1061.51l7.31,41.6-146.82,86.38-7.5-42.7,26.47-14.63-9.63-54.8-29.91-4.95-7.39-42.04,167.47,31.15Zm-98.14,19.97l6.26,35.65,51.97-27.06-.07-.44-58.16-8.16Z"/>
        <path class="cls-4" d="m2285.39,1299.3c16.05-2.72,24.35-14.92,24.06-32.58-.43-26.82-24.07-36.72-47.98-36.33-23.91.39-47.21,11.05-46.77,37.86.32,19.67,11.45,30.44,30.02,31.7l.67,41.57c-41.38-1.79-65.78-31.35-66.43-71.79-.79-48.49,35.58-80.15,81.84-80.9,46.26-.75,83.63,29.71,84.42,78.21.56,34.64-20.74,72.09-59.16,73.83l-.67-41.57Z"/>
        <path class="cls-4" d="m2337.37,1381.21l-6.37,41.07-122.34-18.98-11.41,73.54-35.33-5.48,17.78-114.62,157.68,24.47Z"/>
        <path class="cls-4" d="m2310.86,1533.3l-38.31,121.25-31.75-10.03,25.79-81.62-26.64-8.42-23.56,74.58-30.69-9.69,23.57-74.58-28.98-9.16-26.46,83.75-34.1-10.77,38.98-123.38,152.15,48.07Z"/>
        <path class="cls-4" d="m2146.31,1676.98c-17.18-7.62-27.69-.13-35.7,15.85-5.61,11.19-7.42,24.78,3.16,30.09,12.79,6.41,25.2-12.87,41.31-30.54,15.91-17.27,35.72-34.34,62.09-21.12,31.17,15.63,27.62,53.1,14.2,79.87-14.13,28.17-42.64,50.12-74.6,34.1l18.63-37.16c12.49,7.01,23.09-3.17,28.7-14.36,4.01-7.99,6.22-19.38-3.17-24.09-11.19-5.61-23.31,14.06-39.52,31.94-16.11,17.67-36.12,33.64-61.89,20.72-36.16-18.13-32.32-54.71-16.59-86.07,16.33-32.56,45.44-54.72,82-36.38l-18.63,37.16Z"/>
      </g>
      <g>
        <path class="cls-4" d="m682.65,1974.75l50.63,34.43-37.09,103.41.37.25,82.54-72.5,50.63,34.43-89.72,131.94-32.34-21.99,68.11-100.15-.37-.25-95.83,81.3-26.24-17.84,40.39-119-.37-.25-68.11,100.16-32.33-21.99,89.72-131.94Z"/>
        <path class="cls-4" d="m852.14,2082.02l37.4,18.15-69.66,143.56-37.4-18.14,69.65-143.56Z"/>
        <path class="cls-4" d="m910.63,2112.09l40.44,13.69,20.95,110.92.42.14,31.55-93.14,37.05,12.55-51.19,151.14-40.43-13.69-20.59-111.98-.43-.14-31.91,94.2-37.04-12.55,51.19-151.14Z"/>
        <path class="cls-4" d="m1065.06,2159.64l40.73,8.31-31.9,156.34-40.73-8.31,31.9-156.34Z"/>
        <path class="cls-4" d="m1153.77,2282.11c-.7,18.78,10.14,25.76,27.96,27.27,12.47,1.06,25.77-2.29,26.77-14.1,1.21-14.25-21.29-18.63-43.68-27.04-21.94-8.37-45.14-20.44-42.64-49.83,2.95-34.74,39.07-45.35,68.91-42.81,31.4,2.67,62.36,21,59.33,56.63l-41.42-3.52c1.88-14.2-11.51-20.27-23.98-21.33-8.91-.76-20.31,1.41-21.2,11.88-1.06,12.47,21.7,16.43,44.31,24.85,22.39,8.41,44.63,21.07,42.19,49.79-3.43,40.3-38.82,50.3-73.78,47.33-36.29-3.09-67.66-21.91-64.2-62.65l41.42,3.52Z"/>
        <path class="cls-4" d="m1401.4,2211.31l-47.5,3.17,8.23,123.55-41.48,2.76-8.24-123.54-47.5,3.17-2.38-35.68,136.48-9.1,2.38,35.68Z"/>
        <path class="cls-4" d="m1410.3,2173.87l79.27-18.26c27.22-6.27,57.3-.13,64.52,31.23,3.86,16.77-.31,34.47-15.41,44.6l.1.44c17.29.37,26.73,17.46,31.23,32.02,2.21,6.6,7.77,28.71,14.61,33.55l-40.07,9.23c-4.74-4.64-8.59-19.35-10.29-23.77-4.7-15.43-10.81-30.99-29.97-26.58l-30.7,7.07,13.04,56.62-40.5,9.33-35.82-155.48Zm56.06,58.17l33.97-7.83c12.19-2.81,17.27-10.63,14.51-22.61-2.66-11.54-13.01-14.66-24.33-12.05l-32.23,7.43,8.08,35.06Z"/>
        <path class="cls-4" d="m1562.24,2134.43l39.06-14.24,54.67,149.92-39.05,14.24-54.67-149.92Z"/>
        <path class="cls-4" d="m1625.23,2112.51l113.46-57.43,15.04,29.71-76.37,38.66,12.62,24.93,69.79-35.32,14.53,28.71-69.79,35.32,13.72,27.12,78.37-39.67,16.15,31.9-115.45,58.44-72.06-142.37Z"/>
        <path class="cls-4" d="m1843.28,2111.58c11.72,14.69,24.5,12.89,38.99,2.41,10.14-7.33,18.02-18.55,11.08-28.15-8.38-11.59-28.29-.22-50.74,8.02-22.09,7.98-47.54,13.98-64.83-9.93-20.44-28.25,0-59.86,24.27-77.41,25.53-18.47,60.96-24.79,81.92,4.18l-33.68,24.36c-7.84-11.98-21.95-7.84-32.09-.51-7.24,5.24-14.46,14.33-8.31,22.84,7.34,10.14,27.16-1.72,49.8-10.09,22.45-8.24,47.57-13.17,64.47,10.19,23.71,32.77,3.42,63.45-25.01,84.01-29.52,21.35-65.56,27.57-89.54-5.57l33.68-24.36Z"/>
      </g>
      <g>
        <path class="cls-1" d="m809.65,1267.61c-4.31,7.91-8.65,15.8-12.96,23.69l-5.05,9.17c-81.92,149.59-44.26,255.79-42.62,260.24l3.27,8.92h3.03c.3,1.94.6,3.9.93,5.87,25.08,149.56-202.53-34.38-202.53-34.38,0,0-96.6-49.23-35.28-206.21,61.29-156.98,185.77-280.54,117.06-451.44,2.43.87,157.12,59.08,178.32,250.8,5.51,49.94,2.67,93.54-4.18,133.35Z"/>
        <path class="cls-7" d="m803.61,1307.03c79.89-145.84,167.21-297.26,115.88-568.27,0,0,198.56,123.32,219.46,411.75,20.9,288.43-355.31,405.48-355.31,405.48h-21.83s-38.09-103.11,41.8-248.95Z"/>
        <path class="cls-9" d="m1151.03,1076.66s-42.73-78.03-37.16-183.93c5.57-105.9-.93-187.64-27.87-223.87,0,0,187.64,112.4,208.08,234.09,20.44,121.69-13,207.15-13,207.15l-92.89,19.51-37.16-52.95Z"/>
        <path class="cls-10" d="m1524.82,891.1c-52.01,67.29-80.85,129.94-96.79,177.37-15.04,44.75-20.82,81.53-22.98,105.71h-90.54l-22.29-82.65s150.71-191.83,8.49-435.67c0,0,194.15,70.67,224.11,235.24Z"/>
        <path class="cls-5" d="m1632.22,915.03c1.83,7.83,3.55,17.68,4.88,29.14-78.83,87.21-115.18,170.93-131.8,232.73-18.42,68.46-16.48,121.26-13.94,145.63-4.48,3.14-9.06,6.17-13.81,9.11-176.99,110.08-112.89-51.57-112.89-51.57l52.96-75.23s-12.55-213.2,224.33-416.62c0,0-26.47,55.72-9.74,126.8Z"/>
        <path class="cls-2" d="m1506.81,1334.43s-51.56-250.81,248.02-479.33c0,0-96.14,233.23-40.41,403.66l-147.7,143.95-59.92-68.28Z"/>
        <path class="cls-8" d="m1754.83,1353.24s-59.92-236.88,98.93-438.22c0,0-34.23,111.19,110.77,296.1,145.01,184.9,37.62,344.86,37.62,344.86,0,0-189.5-89.87-247.33-202.74Z"/>
      </g>
      <path class="cls-4" d="m2064.18,1414.31c-68.38,377.03-398.37,662.92-795.12,662.92-371.11,0-683.79-250.12-778.61-590.99,18.45,15.85,45.24,36.16,65.13,40.03,33.45,6.49,66.88-13.02,85.46-35.31,18.58-22.29,34.38-25.08,81.75-26,47.37-.93,66.88,14.84,92.89,11.13,26-3.71,32.53-52.94,63.17-73.38,30.67-20.44,22.29-110.54,65.03-146.78,42.73-36.21,104.05-53.87,114.25-93.81,10.23-39.95,71.55-81.75,87.32-110.54,15.8-28.79.93-67.81,22.29-70.59,21.37-2.81,68.76,31.57,93.84,40.85,25.08,9.31,3.71,26.03,32.5,34.38,28.82,8.35,64.1,13.94,83.61,35.31,19.51,21.37,29.72,8.35,49.23,46.44,19.51,38.09,31.6,34.35,35.31,71.52,3.71,37.17,4.64,57.6,39.02,69.66,34.35,12.09,81.73-19.32,92.89-25,11.13-5.65,8.35-27.94,26.93-34.44,18.58-6.52,25.08-26.96,23.22-37.17-1.86-10.23,43.66-31.6,100.34-22.29,56.65,9.28,17.65,43.66,48.3,114.25,30.64,70.59,18.58,60.39,33.45,97.55,14.84,37.14,20.44,13.92,45.52,54.79,25.08,40.88,29.72,38.09,69.66,40.88,39.95,2.78,65.95-24.15,89.17-20.44,9.17,1.47,21.69-13.89,33.45-32.99Z"/>
    </g>
  </g>
</svg>